<svg width="630" height="148" viewBox="0 0 630 148" fill="none" xmlns="http://www.w3.org/2000/svg">
<path d="M247.117 68.0491C251.526 60.3474 294.512 61.4476 305.902 65.4819C305.902 65.4819 309.943 66.9488 311.413 69.5161C308.596 68.6603 305.167 66.9488 295.247 66.9488C287.899 66.5821 263.651 66.2153 262.916 70.6163C260.554 76.1175 267.325 75.7508 273.57 75.384C281.653 74.5283 298.407 73.2569 300.758 75.0173C304.065 75.7508 307.371 82.719 299.289 86.3864C300.758 84.186 302.007 79.8583 295.247 80.1517C286.797 80.5185 270.631 79.785 266.222 81.9855C264.018 84.9195 267.692 85.653 270.999 85.2862C280.551 84.5527 296.202 82.2789 295.615 86.3864C295.615 87.8534 295.1 90.9341 293.043 91.5209C293.778 88.5869 293.043 86.0197 285.327 88.5869C282.511 89.0759 276.216 93.5747 273.57 107.658C270.264 125.262 269.162 141.032 261.446 148C264.018 138.098 265.488 137.731 259.976 93.7214C259.732 92.9879 258.507 91.5209 255.568 91.5209C254.833 90.4207 254.833 86.7532 254.833 85.2862C250.424 85.2862 247.117 84.9928 247.117 77.9513C246.872 74.6505 246.53 68.0491 247.117 68.0491Z" fill="#EAEAEA"/>
<path d="M229.892 0.474641C248.63 -0.99231 267.735 -0.258871 287.207 20.6457C290.024 23.213 295.069 25.5602 292.718 14.411C296.759 16.6115 302.271 27.2472 301.903 33.4819C302.638 43.0173 298.67 56.6603 284.268 59.8877C287.452 53.8975 291.175 39.4232 280.594 29.4477C279.859 33.4819 280.226 34.5821 279.859 37.5161C278.512 32.2594 273.246 21.1592 262.958 18.812C265.163 21.746 271.041 27.2472 265.163 42.6506C263.448 47.0515 261.562 56.807 267.735 60.6212C258.182 58.7875 253.773 57.6872 248.262 48.5185C246.793 45.3401 244.882 37.076 248.997 29.4477C248.997 33.4819 255.61 39.7166 257.08 29.4477C255.978 13.6775 244 4.87561 229.892 0.474641Z" fill="url(#paint0_linear_2028_76)"/>
<path d="M59.0877 70.5042V111.415H55.1276L45.6987 105.517L48.4017 102.129V92.7167H35.3269L40.9843 97.4228C41.3195 98.4267 41.4871 99.598 41.4871 100.937C41.4871 102.777 40.9005 104.513 39.7271 106.145C38.5537 107.734 36.9403 109.01 34.8869 109.972C32.8335 110.934 30.5287 111.415 27.9724 111.415C25.0809 111.415 22.5665 111.102 20.4293 110.474L10.2461 102.38L12.1318 98.8659C15.191 100.665 17.6635 101.92 19.5492 102.631C21.4769 103.342 23.1741 103.697 24.6408 103.697C26.2333 103.697 27.5114 103.237 28.4753 102.317C29.4391 101.355 29.921 100.142 29.921 98.6777C29.921 97.2554 29.5229 95.8123 28.7267 94.3482C27.9724 92.8422 26.8409 91.4409 25.3323 90.1441L21.8122 87.1322L24.5151 83.6811H48.4017V70.5042H8.61173L0 65.4217V61.4687H61.665L70.151 66.5512V70.5042H59.0877Z" fill="#F3F3F3"/>
<path d="M80.9569 70.5042V111.415H76.9967L67.5679 105.517L70.2708 102.129V70.5042H67.945L59.459 65.4217V61.4687H83.5341L92.0201 66.5512V70.5042H80.9569Z" fill="#F3F3F3"/>
<path d="M140.213 70.4415V111.353H136.253L126.824 105.454L129.527 102.066V93.2187C126.552 94.892 123.178 96.4816 119.407 97.9875L111.172 92.905V88.9519C111.926 88.7009 112.492 88.4918 112.869 88.3244C112.618 86.6512 112.157 85.459 111.486 84.7478C110.858 83.9949 109.936 83.6184 108.721 83.6184C106.919 83.6184 105.431 84.3086 104.258 85.6891C103.084 87.0695 102.497 88.7427 102.497 90.7088C102.497 92.5076 102.896 94.0553 103.692 95.3521C104.53 96.607 105.955 97.862 107.966 99.1169L114.001 103.007L111.801 106.772L91.4343 93.9089C91.099 92.3612 90.9314 90.7088 90.9314 88.9519C90.9314 86.8603 91.4552 84.8733 92.5029 82.9909C93.5505 81.0667 95.1011 79.5189 97.1545 78.3476C99.2079 77.1345 101.68 76.528 104.572 76.528C107.463 76.528 110.355 77.2809 113.246 78.7869C116.138 80.251 118.589 82.217 120.601 84.6851C124.373 82.468 127.348 80.2091 129.527 77.9084V70.5042H85.5883L77.0395 65.4217V61.4687H142.79L151.276 66.5512V70.4415H140.213Z" fill="#F3F3F3"/>
<path d="M187.569 70.5042V111.415H183.609L174.18 105.517L176.883 102.129V92.7167H168.522C167.852 94.8083 166.804 96.6489 165.379 98.2385C163.955 99.7862 162.593 100.56 161.294 100.56C159.743 100.56 157.941 99.8072 155.888 98.3012C153.834 96.7535 152.053 94.9338 150.545 92.8422C149.078 90.7507 148.345 88.9519 148.345 87.446C148.345 86.0655 149.308 85.1034 151.236 84.5596C153.164 83.974 156.432 83.6811 161.042 83.6811H176.883V70.5042H143.944L135.207 65.4217V61.4687H190.146L198.632 66.5512V70.5042H187.569Z" fill="#F3F3F3"/>
<path d="M209.438 70.5042V111.415H205.478L196.049 105.517L198.752 102.129V70.5042H196.426L187.94 65.4217V61.4687H212.015L220.501 66.5512V70.5042H209.438Z" fill="#F3F3F3"/>
<path d="M393.922 70.4415V111.353H389.961L380.533 105.454L383.235 102.066V93.2187C380.26 94.892 376.887 96.4816 373.115 97.9875L364.881 92.905V88.9519C365.635 88.7009 366.201 88.4918 366.578 88.3244C366.326 86.6512 365.865 85.459 365.195 84.7478C364.566 83.9949 363.644 83.6184 362.429 83.6184C360.627 83.6184 359.139 84.3086 357.966 85.6891C356.793 87.0695 356.206 88.7427 356.206 90.7088C356.206 92.5076 356.604 94.0553 357.4 95.3521C358.238 96.607 359.663 97.862 361.675 99.1169L367.709 103.007L365.509 106.772L345.143 93.9089C344.808 92.3612 344.64 90.7088 344.64 88.9519C344.64 86.8603 345.164 84.8733 346.211 82.9909C347.259 81.0667 348.81 79.5189 350.863 78.3476C352.916 77.1345 355.389 76.528 358.28 76.528C361.172 76.528 364.063 77.2809 366.955 78.7869C369.846 80.251 372.298 82.217 374.309 84.6851C378.081 82.468 381.056 80.2091 383.235 77.9084V70.5042H339.297L330.748 65.4217V61.4687H396.499L404.985 66.5512V70.4415H393.922Z" fill="#F3F3F3"/>
<path d="M415.756 70.5042V111.415H411.796L402.367 105.517L405.07 102.129V70.5042H402.744L394.258 65.4217V61.4687H405.007L393.63 52.1193C391.116 50.0696 388.79 48.6473 386.652 47.8525C384.473 47.0577 382.189 46.6603 379.801 46.6603C377.705 46.6603 375.652 46.9322 373.641 47.476L365.092 42.3935V38.4405C367.816 37.8967 370.456 37.6247 373.012 37.6247C376.658 37.6247 380.01 38.2731 383.069 39.5699C386.087 40.8248 389.397 42.9164 393.001 45.8446L411.985 61.4687H418.334L426.82 66.5512V70.5042H415.756Z" fill="#F3F3F3"/>
<path d="M458.418 77.2809C459.675 76.9045 461.1 76.7162 462.692 76.7162C465.458 76.7162 468.349 77.4064 471.367 78.7869C474.384 80.1673 476.898 82.0497 478.91 84.4341C480.921 86.7767 481.927 89.3075 481.927 92.0265C481.927 94.8292 480.879 97.2554 478.784 99.3052C476.731 101.355 474.028 102.631 470.675 103.133L462.441 98.0502V94.0972C463.698 94.3063 464.704 94.4109 465.458 94.4109C467.218 94.4109 468.58 93.8253 469.544 92.654C470.508 91.4409 471.031 89.8304 471.115 87.8225C471.115 84.6014 469.942 82.9909 467.595 82.9909C466.045 83.0328 464.704 83.5766 463.572 84.6223C462.483 85.6681 461.288 87.1531 459.989 89.0774L458.606 91.0226L458.418 91.2108V111.478H454.458L445.029 105.58L447.732 102.192V101.941C446.474 102.317 445.071 102.505 443.52 102.505C440.712 102.505 437.8 101.815 434.783 100.435C431.765 99.0542 429.251 97.1927 427.239 94.8501C425.27 92.4657 424.285 89.914 424.285 87.195C424.285 84.3923 425.312 81.9661 427.365 79.9163C429.419 77.8666 432.122 76.5907 435.474 76.0887L443.709 81.1713V85.1243C442.451 84.9152 441.446 84.8106 440.691 84.8106C438.931 84.8106 437.569 85.4171 436.605 86.6303C435.642 87.8015 435.118 89.3911 435.034 91.399C435.034 94.6201 436.207 96.2306 438.554 96.2306C440.188 96.1887 441.571 95.624 442.703 94.5364C443.876 93.4069 445.154 91.7755 446.537 89.6421L447.606 88.1362L447.794 87.9479V70.5042H420.451L411.839 65.4217V61.4687H485.824L494.436 66.5512V70.5042L458.418 70.6297V77.2809Z" fill="#F3F3F3"/>
<path d="M562.987 70.5042H551.923V111.415H547.963L538.534 105.517L541.237 102.129V97.2973C538.555 98.7614 535.308 99.4934 531.494 99.4934C528.812 99.4934 525.983 98.845 523.008 97.5483C520.075 96.2515 517.476 94.641 515.213 92.7167H508.613L514.271 97.4228C514.606 98.4267 514.773 99.598 514.773 100.937C514.773 102.777 514.187 104.513 513.013 106.145C511.84 107.734 510.227 109.01 508.173 109.972C506.12 110.934 503.815 111.415 501.259 111.415C498.367 111.415 495.853 111.102 493.716 110.474L483.532 102.38L485.418 98.8659C488.477 100.665 490.95 101.92 492.836 102.631C494.763 103.342 496.46 103.697 497.927 103.697C499.52 103.697 500.798 103.237 501.762 102.317C502.725 101.355 503.207 100.142 503.207 98.6777C503.207 97.2554 502.809 95.8123 502.013 94.3482C501.259 92.8422 500.127 91.4409 498.619 90.1441L495.099 87.1322L497.801 83.6811H513.328C515.046 83.3465 516.471 82.4471 517.602 80.983C518.734 79.5189 519.299 77.6365 519.299 75.3358C519.299 73.2442 519.048 71.6337 518.545 70.5042H481.898L473.286 65.4217V61.4687H554.563L562.987 66.5512V70.5042ZM527.723 70.567C529.776 73.4534 530.803 76.4652 530.803 79.6026C530.803 81.9033 530.048 83.953 528.54 85.7518C527.031 87.5505 524.978 88.8682 522.379 89.7049V89.9559C523.218 91.9219 524.873 92.905 527.345 92.905C532.123 92.905 536.753 89.9768 541.237 84.1204V70.567H527.723Z" fill="#F3F3F3"/>
<path d="M573.887 70.5042V111.415H569.927L560.498 105.517L563.201 102.129V70.5042H560.875L552.389 65.4217V61.4687H563.138L551.76 52.1193C549.246 50.0696 546.92 48.6473 544.783 47.8525C542.604 47.0577 540.32 46.6603 537.931 46.6603C535.836 46.6603 533.783 46.9322 531.771 47.476L523.222 42.3935V38.4405C525.946 37.8967 528.586 37.6247 531.142 37.6247C534.788 37.6247 538.141 38.2731 541.2 39.5699C544.217 40.8248 547.528 42.9164 551.132 45.8446L570.115 61.4687H576.464L584.95 66.5512V70.5042H573.887Z" fill="#F3F3F3"/>
<path d="M618.937 70.5042V111.415H614.977L605.548 105.517L608.251 102.129V92.7167H600.393C596.328 92.7167 594.296 94.6201 594.296 98.4267C594.296 99.849 594.589 101.083 595.176 102.129C595.805 103.133 596.915 104.179 598.508 105.266L602.97 108.529L600.268 111.98L583.233 100.811C582.897 99.347 582.73 97.7574 582.73 96.0423C582.73 87.8015 587.381 83.6811 596.685 83.6811H608.251V70.5042H578.644L569.969 65.4217V61.4687H621.514L630 66.5512V70.5042H618.937Z" fill="#F3F3F3"/>
<defs>
<linearGradient id="paint0_linear_2028_76" x1="260.055" y1="11.0079" x2="270.976" y2="156.185" gradientUnits="userSpaceOnUse">
<stop stop-color="#FF4E4E"/>
<stop offset="1" stop-color="#C40000"/>
</linearGradient>
</defs>
</svg>
