<svg width="642" height="151" viewBox="0 0 642 151" fill="none" xmlns="http://www.w3.org/2000/svg">
<path d="M251.602 69.4078C256.091 61.5523 299.857 62.6745 311.453 66.7893C311.453 66.7893 315.568 68.2856 317.064 70.9041C314.196 70.0313 310.705 68.2856 300.605 68.2856C293.124 67.9115 268.435 67.5375 267.687 72.0263C265.282 77.6374 272.176 77.2633 278.535 76.8892C286.764 76.0164 303.822 74.7196 306.216 76.5151C309.583 77.2633 312.949 84.3706 304.72 88.1113C306.216 85.8669 307.488 81.4529 300.605 81.7521C292.001 82.1262 275.542 81.3781 271.053 83.6225C268.809 86.615 272.55 87.3632 275.916 86.9891C285.642 86.241 301.578 83.9217 300.979 88.1113C300.979 89.6076 300.455 92.7498 298.361 93.3483C299.109 90.3557 298.361 87.7373 290.505 90.3557C287.637 90.8545 281.228 95.4431 278.535 109.807C275.168 127.763 274.046 143.848 266.191 150.955C268.809 140.855 270.305 140.481 264.694 95.5927C264.445 94.8446 263.198 93.3483 260.205 93.3483C259.457 92.2261 259.457 88.4854 259.457 86.9891C254.968 86.9891 251.602 86.6899 251.602 79.5077C251.352 76.1411 251.003 69.4078 251.602 69.4078Z" fill="url(#paint0_linear_2028_89)"/>
<path d="M234.064 0.484118C253.142 -1.01212 272.593 -0.26404 292.419 21.058C295.287 23.6765 300.424 26.0705 298.03 14.6988C302.145 16.9432 307.756 27.7912 307.382 34.1504C308.13 43.8763 304.09 57.7917 289.426 61.0835C292.668 54.9737 296.459 40.2104 285.686 30.0357C284.938 34.1504 285.312 35.2726 284.938 38.2652C283.566 32.9035 278.204 21.5817 267.73 19.1876C269.975 22.1802 275.96 27.7912 269.975 43.5022C268.229 47.991 266.309 57.9413 272.593 61.8316C262.867 59.9613 258.379 58.8391 252.768 49.4873C251.271 46.2454 249.326 37.8163 253.516 30.0357C253.516 34.1504 260.249 40.5096 261.745 30.0357C260.623 13.9506 248.428 4.97296 234.064 0.484118Z" fill="url(#paint1_linear_2028_89)"/>
<path d="M60.16 71.912V113.64H56.128L46.528 107.624L49.28 104.168V94.568H35.968L41.728 99.368C42.0693 100.392 42.24 101.587 42.24 102.952C42.24 104.829 41.6427 106.6 40.448 108.264C39.2533 109.885 37.6107 111.187 35.52 112.168C33.4293 113.149 31.0827 113.64 28.48 113.64C25.536 113.64 22.976 113.32 20.8 112.68L10.432 104.424L12.352 100.84C15.4667 102.675 17.984 103.955 19.904 104.68C21.8667 105.405 23.5947 105.768 25.088 105.768C26.7093 105.768 28.0107 105.299 28.992 104.36C29.9733 103.379 30.464 102.141 30.464 100.648C30.464 99.1973 30.0587 97.7253 29.248 96.232C28.48 94.696 27.328 93.2667 25.792 91.944L22.208 88.872L24.96 85.352H49.28V71.912H8.768L0 66.728V62.696H62.784L71.424 67.88V71.912H60.16Z" fill="url(#paint2_linear_2028_89)"/>
<path d="M82.426 71.912V113.64H78.394L68.794 107.624L71.546 104.168V71.912H69.178L60.538 66.728V62.696H85.05L93.69 67.88V71.912H82.426Z" fill="url(#paint3_linear_2028_89)"/>
<path d="M142.758 71.848V113.576H138.726L129.126 107.56L131.878 104.104V95.08C128.848 96.7867 125.414 98.408 121.574 99.944L113.189 94.76V90.728C113.957 90.472 114.534 90.2587 114.918 90.088C114.662 88.3813 114.192 87.1653 113.509 86.44C112.869 85.672 111.931 85.288 110.694 85.288C108.859 85.288 107.344 85.992 106.149 87.4C104.955 88.808 104.357 90.5147 104.357 92.52C104.357 94.3547 104.763 95.9333 105.574 97.256C106.427 98.536 107.877 99.816 109.925 101.096L116.07 105.064L113.829 108.904L93.0935 95.784C92.7522 94.2053 92.5815 92.52 92.5815 90.728C92.5815 88.5947 93.1148 86.568 94.1815 84.648C95.2482 82.6853 96.8268 81.1067 98.9175 79.912C101.008 78.6747 103.525 78.056 106.469 78.056C109.413 78.056 112.357 78.824 115.301 80.36C118.245 81.8533 120.742 83.8587 122.79 86.376C126.63 84.1147 129.659 81.8107 131.878 79.464V71.912H87.1415L78.4375 66.728V62.696H145.382L154.021 67.88V71.848H142.758Z" fill="url(#paint4_linear_2028_89)"/>
<path d="M190.973 71.912V113.64H186.941L177.34 107.624L180.092 104.168V94.568H171.581C170.898 96.7013 169.831 98.5787 168.381 100.2C166.93 101.779 165.543 102.568 164.221 102.568C162.642 102.568 160.807 101.8 158.717 100.264C156.626 98.6853 154.813 96.8293 153.277 94.696C151.783 92.5627 151.036 90.728 151.036 89.192C151.036 87.784 152.018 86.8027 153.98 86.248C155.943 85.6507 159.271 85.352 163.965 85.352H180.092V71.912H146.557L137.66 66.728V62.696H193.596L202.237 67.88V71.912H190.973Z" fill="url(#paint5_linear_2028_89)"/>
<path d="M213.238 71.912V113.64H209.206L199.607 107.624L202.359 104.168V71.912H199.99L191.35 66.728V62.696H215.863L224.503 67.88V71.912H213.238Z" fill="url(#paint6_linear_2028_89)"/>
<path d="M401.07 71.848V113.576H397.038L387.438 107.56L390.19 104.104V95.08C387.161 96.7867 383.726 98.408 379.886 99.944L371.502 94.76V90.728C372.27 90.472 372.846 90.2587 373.23 90.088C372.974 88.3813 372.505 87.1653 371.822 86.44C371.182 85.672 370.243 85.288 369.006 85.288C367.171 85.288 365.657 85.992 364.462 87.4C363.267 88.808 362.67 90.5147 362.67 92.52C362.67 94.3547 363.075 95.9333 363.886 97.256C364.739 98.536 366.19 99.816 368.238 101.096L374.382 105.064L372.142 108.904L351.406 95.784C351.065 94.2053 350.894 92.52 350.894 90.728C350.894 88.5947 351.427 86.568 352.494 84.648C353.561 82.6853 355.139 81.1067 357.23 79.912C359.321 78.6747 361.838 78.056 364.782 78.056C367.726 78.056 370.67 78.824 373.614 80.36C376.558 81.8533 379.054 83.8587 381.102 86.376C384.942 84.1147 387.971 81.8107 390.19 79.464V71.912H345.454L336.75 66.728V62.696H403.694L412.334 67.88V71.848H401.07Z" fill="url(#paint7_linear_2028_89)"/>
<path d="M423.301 71.912V113.64H419.269L409.669 107.624L412.421 104.168V71.912H410.053L401.413 66.728V62.696H412.357L400.773 53.16C398.213 51.0693 395.845 49.6187 393.669 48.808C391.45 47.9973 389.125 47.592 386.693 47.592C384.56 47.592 382.469 47.8693 380.421 48.424L371.717 43.24V39.208C374.49 38.6533 377.178 38.376 379.781 38.376C383.493 38.376 386.906 39.0373 390.021 40.36C393.093 41.64 396.464 43.7733 400.133 46.76L419.461 62.696H425.925L434.565 67.88V71.912H423.301Z" fill="url(#paint8_linear_2028_89)"/>
<path d="M466.737 78.824C468.017 78.44 469.467 78.248 471.089 78.248C473.905 78.248 476.849 78.952 479.921 80.36C482.993 81.768 485.552 83.688 487.6 86.12C489.648 88.5093 490.673 91.0907 490.673 93.864C490.673 96.7227 489.606 99.1973 487.473 101.288C485.382 103.379 482.63 104.68 479.216 105.192L470.832 100.008V95.976C472.112 96.1893 473.137 96.296 473.905 96.296C475.697 96.296 477.083 95.6987 478.065 94.504C479.046 93.2667 479.579 91.624 479.664 89.576C479.664 86.2907 478.47 84.648 476.081 84.648C474.502 84.6907 473.136 85.2453 471.984 86.312C470.875 87.3787 469.659 88.8933 468.337 90.856L466.928 92.84L466.737 93.032V113.704H462.704L453.104 107.688L455.857 104.232V103.976C454.577 104.36 453.147 104.552 451.569 104.552C448.71 104.552 445.744 103.848 442.672 102.44C439.6 101.032 437.04 99.1333 434.992 96.744C432.987 94.312 431.984 91.7093 431.984 88.936C431.984 86.0773 433.03 83.6027 435.121 81.512C437.211 79.4213 439.963 78.12 443.376 77.608L451.76 82.792V86.824C450.48 86.6107 449.457 86.504 448.689 86.504C446.897 86.504 445.51 87.1227 444.529 88.36C443.547 89.5547 443.014 91.176 442.928 93.224C442.928 96.5093 444.123 98.152 446.513 98.152C448.177 98.1093 449.585 97.5333 450.737 96.424C451.931 95.272 453.233 93.608 454.641 91.432L455.729 89.896L455.921 89.704V71.912H428.081L419.312 66.728V62.696H494.641L503.409 67.88V71.912L466.737 72.04V78.824Z" fill="url(#paint9_linear_2028_89)"/>
<path d="M573.203 71.912H561.939V113.64H557.907L548.307 107.624L551.059 104.168V99.24C548.328 100.733 545.022 101.48 541.139 101.48C538.408 101.48 535.528 100.819 532.499 99.496C529.512 98.1733 526.867 96.5307 524.563 94.568H517.843L523.603 99.368C523.944 100.392 524.115 101.587 524.115 102.952C524.115 104.829 523.518 106.6 522.323 108.264C521.128 109.885 519.486 111.187 517.395 112.168C515.304 113.149 512.958 113.64 510.355 113.64C507.411 113.64 504.851 113.32 502.675 112.68L492.307 104.424L494.227 100.84C497.342 102.675 499.859 103.955 501.779 104.68C503.742 105.405 505.47 105.768 506.963 105.768C508.584 105.768 509.886 105.299 510.867 104.36C511.848 103.379 512.339 102.141 512.339 100.648C512.339 99.1973 511.934 97.7253 511.123 96.232C510.355 94.696 509.203 93.2667 507.667 91.944L504.083 88.872L506.835 85.352H522.643C524.392 85.0107 525.843 84.0933 526.995 82.6C528.147 81.1067 528.723 79.1867 528.723 76.84C528.723 74.7067 528.467 73.064 527.955 71.912H490.643L481.875 66.728V62.696H564.627L573.203 67.88V71.912ZM537.299 71.976C539.39 74.92 540.435 77.992 540.435 81.192C540.435 83.5387 539.667 85.6293 538.131 87.464C536.595 89.2987 534.504 90.6427 531.859 91.496V91.752C532.712 93.7573 534.398 94.76 536.915 94.76C541.779 94.76 546.494 91.7733 551.059 85.8V71.976H537.299Z" fill="url(#paint10_linear_2028_89)"/>
<path d="M584.301 71.912V113.64H580.269L570.669 107.624L573.421 104.168V71.912H571.053L562.413 66.728V62.696H573.357L561.773 53.16C559.213 51.0693 556.845 49.6187 554.669 48.808C552.45 47.9973 550.125 47.592 547.693 47.592C545.56 47.592 543.469 47.8693 541.421 48.424L532.717 43.24V39.208C535.49 38.6533 538.178 38.376 540.781 38.376C544.493 38.376 547.906 39.0373 551.021 40.36C554.093 41.64 557.464 43.7733 561.133 46.76L580.461 62.696H586.925L595.565 67.88V71.912H584.301Z" fill="url(#paint11_linear_2028_89)"/>
<path d="M630.169 71.912V113.64H626.136L616.536 107.624L619.289 104.168V94.568H611.289C607.15 94.568 605.081 96.5093 605.081 100.392C605.081 101.843 605.379 103.101 605.977 104.168C606.617 105.192 607.747 106.259 609.369 107.368L613.912 110.696L611.161 114.216L593.817 102.824C593.475 101.331 593.305 99.7093 593.305 97.96C593.305 89.5547 598.041 85.352 607.513 85.352H619.289V71.912H589.144L580.312 66.728V62.696H632.792L641.432 67.88V71.912H630.169Z" fill="url(#paint12_linear_2028_89)"/>
<defs>
<linearGradient id="paint0_linear_2028_89" x1="320.716" y1="0" x2="320.716" y2="150.955" gradientUnits="userSpaceOnUse">
<stop stop-color="#4C4C4C"/>
<stop offset="1"/>
</linearGradient>
<linearGradient id="paint1_linear_2028_89" x1="264.775" y1="11.2277" x2="275.933" y2="159.301" gradientUnits="userSpaceOnUse">
<stop stop-color="#FF4E4E"/>
<stop offset="1" stop-color="#C40000"/>
</linearGradient>
<linearGradient id="paint2_linear_2028_89" x1="663.223" y1="96.9947" x2="0.554949" y2="96.9947" gradientUnits="userSpaceOnUse">
<stop offset="0.6" stop-color="#D91C1C"/>
<stop offset="0.8" stop-color="#222222"/>
</linearGradient>
<linearGradient id="paint3_linear_2028_89" x1="663.223" y1="96.9947" x2="0.554949" y2="96.9947" gradientUnits="userSpaceOnUse">
<stop offset="0.6" stop-color="#D91C1C"/>
<stop offset="0.8" stop-color="#222222"/>
</linearGradient>
<linearGradient id="paint4_linear_2028_89" x1="663.223" y1="96.9947" x2="0.554949" y2="96.9947" gradientUnits="userSpaceOnUse">
<stop offset="0.6" stop-color="#D91C1C"/>
<stop offset="0.8" stop-color="#222222"/>
</linearGradient>
<linearGradient id="paint5_linear_2028_89" x1="663.223" y1="96.9947" x2="0.554949" y2="96.9947" gradientUnits="userSpaceOnUse">
<stop offset="0.6" stop-color="#D91C1C"/>
<stop offset="0.8" stop-color="#222222"/>
</linearGradient>
<linearGradient id="paint6_linear_2028_89" x1="663.223" y1="96.9947" x2="0.554949" y2="96.9947" gradientUnits="userSpaceOnUse">
<stop offset="0.6" stop-color="#D91C1C"/>
<stop offset="0.8" stop-color="#222222"/>
</linearGradient>
<linearGradient id="paint7_linear_2028_89" x1="663.223" y1="96.9947" x2="0.554949" y2="96.9947" gradientUnits="userSpaceOnUse">
<stop offset="0.6" stop-color="#D91C1C"/>
<stop offset="0.8" stop-color="#222222"/>
</linearGradient>
<linearGradient id="paint8_linear_2028_89" x1="663.223" y1="96.9947" x2="0.554949" y2="96.9947" gradientUnits="userSpaceOnUse">
<stop offset="0.6" stop-color="#D91C1C"/>
<stop offset="0.8" stop-color="#222222"/>
</linearGradient>
<linearGradient id="paint9_linear_2028_89" x1="663.223" y1="96.9947" x2="0.554949" y2="96.9947" gradientUnits="userSpaceOnUse">
<stop offset="0.6" stop-color="#D91C1C"/>
<stop offset="0.8" stop-color="#222222"/>
</linearGradient>
<linearGradient id="paint10_linear_2028_89" x1="663.223" y1="96.9947" x2="0.554949" y2="96.9947" gradientUnits="userSpaceOnUse">
<stop offset="0.6" stop-color="#D91C1C"/>
<stop offset="0.8" stop-color="#222222"/>
</linearGradient>
<linearGradient id="paint11_linear_2028_89" x1="663.223" y1="96.9947" x2="0.554949" y2="96.9947" gradientUnits="userSpaceOnUse">
<stop offset="0.6" stop-color="#D91C1C"/>
<stop offset="0.8" stop-color="#222222"/>
</linearGradient>
<linearGradient id="paint12_linear_2028_89" x1="663.223" y1="96.9947" x2="0.554949" y2="96.9947" gradientUnits="userSpaceOnUse">
<stop offset="0.6" stop-color="#D91C1C"/>
<stop offset="0.8" stop-color="#222222"/>
</linearGradient>
</defs>
</svg>
