<svg width="643" height="165" viewBox="0 0 643 165" fill="none" xmlns="http://www.w3.org/2000/svg">
<path d="M252.538 69.4079C257.027 61.5524 300.793 62.6746 312.389 66.7894C312.389 66.7894 316.504 68.2856 318 70.9041C315.132 70.0313 311.641 68.2856 301.541 68.2856C294.06 67.9116 269.371 67.5375 268.623 72.0263C266.218 77.6374 273.112 77.2633 279.471 76.8892C287.7 76.0164 304.758 74.7196 307.152 76.5152C310.519 77.2633 313.885 84.3707 305.656 88.1114C307.152 85.8669 308.424 81.4529 301.541 81.7522C292.937 82.1262 276.478 81.3781 271.989 83.6225C269.745 86.6151 273.486 87.3632 276.852 86.9891C286.578 86.241 302.514 83.9218 301.915 88.1114C301.915 89.6076 301.391 92.7498 299.297 93.3483C300.045 90.3558 299.297 87.7373 291.441 90.3558C288.573 90.8545 282.164 95.4431 279.471 109.807C276.104 127.763 274.982 143.848 267.127 150.955C269.745 140.855 271.241 140.481 265.63 95.5928C265.381 94.8446 264.134 93.3483 261.141 93.3483C260.393 92.2261 260.393 88.4854 260.393 86.9891C255.904 86.9891 252.538 86.6899 252.538 79.5077C252.288 76.1411 251.939 69.4079 252.538 69.4079Z" fill="url(#paint0_linear_2027_83)"/>
<path d="M235 0.484118C254.078 -1.01212 273.529 -0.26404 293.355 21.058C296.223 23.6765 301.36 26.0705 298.966 14.6988C303.081 16.9432 308.692 27.7912 308.318 34.1504C309.066 43.8763 305.026 57.7917 290.362 61.0835C293.604 54.9737 297.395 40.2104 286.622 30.0357C285.873 34.1504 286.248 35.2726 285.873 38.2652C284.502 32.9035 279.14 21.5817 268.666 19.1876C270.911 22.1802 276.896 27.7912 270.911 43.5022C269.165 47.991 267.245 57.9413 273.529 61.8316C263.803 59.9613 259.315 58.8391 253.703 49.4873C252.207 46.2454 250.262 37.8163 254.452 30.0357C254.452 34.1504 261.185 40.5096 262.681 30.0357C261.559 13.9506 249.364 4.97296 235 0.484118Z" fill="url(#paint1_linear_2027_83)"/>
<path d="M61.096 71.912V113.64H57.064L47.464 107.624L50.216 104.168V94.568H36.904L42.664 99.368C43.0053 100.392 43.176 101.587 43.176 102.952C43.176 104.829 42.5787 106.6 41.384 108.264C40.1893 109.885 38.5467 111.187 36.456 112.168C34.3653 113.149 32.0187 113.64 29.416 113.64C26.472 113.64 23.912 113.32 21.736 112.68L11.368 104.424L13.288 100.84C16.4027 102.675 18.92 103.955 20.84 104.68C22.8027 105.405 24.5307 105.768 26.024 105.768C27.6453 105.768 28.9467 105.299 29.928 104.36C30.9093 103.379 31.4 102.141 31.4 100.648C31.4 99.1973 30.9947 97.7253 30.184 96.232C29.416 94.696 28.264 93.2667 26.728 91.944L23.144 88.872L25.896 85.352H50.216V71.912H9.704L0.936 66.728V62.696H63.72L72.36 67.88V71.912H61.096ZM83.362 71.912V113.64H79.33L69.73 107.624L72.482 104.168V71.912H70.114L61.474 66.728V62.696H85.986L94.626 67.88V71.912H83.362ZM143.694 71.848V113.576H139.662L130.062 107.56L132.814 104.104V95.08C129.784 96.7867 126.35 98.408 122.51 99.944L114.126 94.76V90.728C114.894 90.472 115.47 90.2587 115.854 90.088C115.598 88.3813 115.128 87.1653 114.446 86.44C113.806 85.672 112.867 85.288 111.63 85.288C109.795 85.288 108.28 85.992 107.086 87.4C105.891 88.808 105.294 90.5147 105.294 92.52C105.294 94.3547 105.699 95.9333 106.51 97.256C107.363 98.536 108.814 99.816 110.862 101.096L117.006 105.064L114.766 108.904L94.0295 95.784C93.6882 94.2053 93.5175 92.52 93.5175 90.728C93.5175 88.5947 94.0508 86.568 95.1175 84.648C96.1842 82.6853 97.7628 81.1067 99.8535 79.912C101.944 78.6747 104.462 78.056 107.406 78.056C110.35 78.056 113.294 78.824 116.238 80.36C119.182 81.8533 121.678 83.8587 123.726 86.376C127.566 84.1147 130.595 81.8107 132.814 79.464V71.912H88.0775L79.3735 66.728V62.696H146.318L154.958 67.88V71.848H143.694ZM191.909 71.912V113.64H187.877L178.277 107.624L181.029 104.168V94.568H172.517C171.834 96.7013 170.767 98.5787 169.317 100.2C167.866 101.779 166.479 102.568 165.157 102.568C163.578 102.568 161.743 101.8 159.653 100.264C157.562 98.6853 155.749 96.8293 154.213 94.696C152.719 92.5627 151.973 90.728 151.973 89.192C151.973 87.784 152.954 86.8027 154.917 86.248C156.879 85.6507 160.207 85.352 164.901 85.352H181.029V71.912H147.492L138.596 66.728V62.696H194.533L203.173 67.88V71.912H191.909ZM214.175 71.912V113.64H210.143L200.543 107.624L203.295 104.168V71.912H200.927L192.286 66.728V62.696H216.799L225.439 67.88V71.912H214.175ZM402.006 71.848V113.576H397.974L388.374 107.56L391.126 104.104V95.08C388.097 96.7867 384.662 98.408 380.822 99.944L372.438 94.76V90.728C373.206 90.472 373.782 90.2587 374.166 90.088C373.91 88.3813 373.441 87.1653 372.758 86.44C372.118 85.672 371.179 85.288 369.942 85.288C368.107 85.288 366.593 85.992 365.398 87.4C364.203 88.808 363.606 90.5147 363.606 92.52C363.606 94.3547 364.011 95.9333 364.822 97.256C365.675 98.536 367.126 99.816 369.174 101.096L375.318 105.064L373.078 108.904L352.342 95.784C352.001 94.2053 351.83 92.52 351.83 90.728C351.83 88.5947 352.363 86.568 353.43 84.648C354.497 82.6853 356.075 81.1067 358.166 79.912C360.257 78.6747 362.774 78.056 365.718 78.056C368.662 78.056 371.606 78.824 374.55 80.36C377.494 81.8533 379.99 83.8587 382.038 86.376C385.878 84.1147 388.907 81.8107 391.126 79.464V71.912H346.39L337.686 66.728V62.696H404.63L413.27 67.88V71.848H402.006ZM424.237 71.912V113.64H420.205L410.605 107.624L413.357 104.168V71.912H410.989L402.349 66.728V62.696H413.293L401.709 53.16C399.149 51.0693 396.781 49.6187 394.605 48.808C392.386 47.9973 390.061 47.592 387.629 47.592C385.496 47.592 383.405 47.8693 381.357 48.424L372.653 43.24V39.208C375.426 38.6533 378.114 38.376 380.717 38.376C384.429 38.376 387.842 39.0373 390.957 40.36C394.029 41.64 397.4 43.7733 401.069 46.76L420.397 62.696H426.861L435.501 67.88V71.912H424.237ZM467.673 78.824C468.953 78.44 470.403 78.248 472.025 78.248C474.841 78.248 477.785 78.952 480.857 80.36C483.929 81.768 486.489 83.688 488.537 86.12C490.585 88.5093 491.609 91.0907 491.609 93.864C491.609 96.7227 490.542 99.1973 488.409 101.288C486.318 103.379 483.566 104.68 480.153 105.192L471.769 100.008V95.976C473.049 96.1893 474.073 96.296 474.841 96.296C476.633 96.296 478.019 95.6987 479.001 94.504C479.982 93.2667 480.515 91.624 480.601 89.576C480.601 86.2907 479.406 84.648 477.017 84.648C475.438 84.6907 474.073 85.2453 472.921 86.312C471.811 87.3787 470.595 88.8933 469.273 90.856L467.865 92.84L467.673 93.032V113.704H463.641L454.041 107.688L456.793 104.232V103.976C455.513 104.36 454.083 104.552 452.505 104.552C449.646 104.552 446.681 103.848 443.609 102.44C440.537 101.032 437.977 99.1333 435.929 96.744C433.923 94.312 432.921 91.7093 432.921 88.936C432.921 86.0773 433.966 83.6027 436.057 81.512C438.147 79.4213 440.899 78.12 444.312 77.608L452.697 82.792V86.824C451.417 86.6107 450.393 86.504 449.625 86.504C447.833 86.504 446.446 87.1227 445.465 88.36C444.483 89.5547 443.95 91.176 443.865 93.224C443.865 96.5093 445.059 98.152 447.449 98.152C449.113 98.1093 450.521 97.5333 451.673 96.424C452.867 95.272 454.169 93.608 455.577 91.432L456.665 89.896L456.857 89.704V71.912H429.017L420.248 66.728V62.696H495.576L504.345 67.88V71.912L467.673 72.04V78.824ZM574.139 71.912H562.875V113.64H558.843L549.243 107.624L551.995 104.168V99.24C549.264 100.733 545.958 101.48 542.075 101.48C539.344 101.48 536.464 100.819 533.435 99.496C530.448 98.1733 527.803 96.5307 525.499 94.568H518.779L524.539 99.368C524.88 100.392 525.051 101.587 525.051 102.952C525.051 104.829 524.454 106.6 523.259 108.264C522.064 109.885 520.422 111.187 518.331 112.168C516.24 113.149 513.894 113.64 511.291 113.64C508.347 113.64 505.787 113.32 503.611 112.68L493.243 104.424L495.163 100.84C498.278 102.675 500.795 103.955 502.715 104.68C504.678 105.405 506.406 105.768 507.899 105.768C509.52 105.768 510.822 105.299 511.803 104.36C512.784 103.379 513.275 102.141 513.275 100.648C513.275 99.1973 512.87 97.7253 512.059 96.232C511.291 94.696 510.139 93.2667 508.603 91.944L505.019 88.872L507.771 85.352H523.579C525.328 85.0107 526.779 84.0933 527.931 82.6C529.083 81.1067 529.659 79.1867 529.659 76.84C529.659 74.7067 529.403 73.064 528.891 71.912H491.579L482.811 66.728V62.696H565.563L574.139 67.88V71.912ZM538.235 71.976C540.326 74.92 541.371 77.992 541.371 81.192C541.371 83.5387 540.603 85.6293 539.067 87.464C537.531 89.2987 535.44 90.6427 532.795 91.496V91.752C533.648 93.7573 535.334 94.76 537.851 94.76C542.715 94.76 547.43 91.7733 551.995 85.8V71.976H538.235ZM585.237 71.912V113.64H581.205L571.605 107.624L574.357 104.168V71.912H571.989L563.349 66.728V62.696H574.293L562.709 53.16C560.149 51.0693 557.781 49.6187 555.605 48.808C553.386 47.9973 551.061 47.592 548.629 47.592C546.496 47.592 544.405 47.8693 542.357 48.424L533.653 43.24V39.208C536.426 38.6533 539.114 38.376 541.717 38.376C545.429 38.376 548.842 39.0373 551.957 40.36C555.029 41.64 558.4 43.7733 562.069 46.76L581.397 62.696H587.861L596.501 67.88V71.912H585.237ZM631.105 71.912V113.64H627.073L617.473 107.624L620.225 104.168V94.568H612.225C608.086 94.568 606.017 96.5093 606.017 100.392C606.017 101.843 606.315 103.101 606.913 104.168C607.553 105.192 608.683 106.259 610.305 107.368L614.849 110.696L612.097 114.216L594.753 102.824C594.411 101.331 594.241 99.7093 594.241 97.96C594.241 89.5547 598.977 85.352 608.449 85.352H620.225V71.912H590.081L581.248 66.728V62.696H633.729L642.369 67.88V71.912H631.105Z" fill="url(#paint2_linear_2027_83)"/>
<defs>
<linearGradient id="paint0_linear_2027_83" x1="285.104" y1="63.592" x2="285.104" y2="150.955" gradientUnits="userSpaceOnUse">
<stop stop-color="#4C4C4C"/>
<stop offset="1"/>
</linearGradient>
<linearGradient id="paint1_linear_2027_83" x1="265.3" y1="4.59889" x2="280.637" y2="61.4575" gradientUnits="userSpaceOnUse">
<stop stop-color="#FF4E4E"/>
<stop offset="1" stop-color="#C40000"/>
</linearGradient>
<linearGradient id="paint2_linear_2027_83" x1="664.159" y1="96.9947" x2="1.49102" y2="96.9947" gradientUnits="userSpaceOnUse">
<stop offset="0.496932" stop-color="#D91C1C"/>
<stop offset="1" stop-color="#222222"/>
</linearGradient>
</defs>
</svg>
