<svg width="180" height="180" viewBox="0 0 180 180" fill="none" xmlns="http://www.w3.org/2000/svg">
<circle cx="90" cy="90" r="90" fill="#F0F0F0"/>
<circle cx="90" cy="90" r="88.5" stroke="url(#paint0_linear_2027_73)" stroke-opacity="0.84" strokeWidth="3"/>
<path d="M67.27 84.3904C71.4343 77.1028 112.037 78.1439 122.795 81.9612C122.795 81.9612 126.612 83.3493 128 85.7785C125.339 84.9687 122.101 83.3493 112.731 83.3493C105.79 83.0023 82.8863 82.6552 82.1922 86.8196C79.9613 92.025 86.3565 91.678 92.256 91.3309C99.8907 90.5212 115.715 89.3182 117.936 90.9839C121.059 91.678 124.183 98.2715 116.548 101.742C117.936 99.6596 119.116 95.5647 112.731 95.8423C104.749 96.1894 89.4798 95.4953 85.3155 97.5775C83.2333 100.354 86.7036 101.048 89.8268 100.701C98.8496 100.007 113.633 97.8551 113.078 101.742C113.078 103.13 112.592 106.045 110.649 106.6C111.343 103.824 110.649 101.395 103.361 103.824C100.7 104.287 94.7546 108.544 92.256 121.869C89.1328 138.527 88.0917 153.449 80.8041 160.043C83.2333 150.673 84.6214 150.326 79.416 108.682C79.1846 107.988 78.0279 106.6 75.2516 106.6C74.5576 105.559 74.5576 102.089 74.5576 100.701C70.3932 100.701 67.27 100.423 67.27 93.7602C67.0386 90.6369 66.7147 84.3904 67.27 84.3904Z" fill="url(#paint1_linear_2027_73)"/>
<path d="M51 20.4491C68.6985 19.061 86.744 19.755 105.137 39.5357C107.797 41.9649 112.563 44.1859 110.342 33.6362C114.159 35.7184 119.365 45.7822 119.018 51.6817C119.712 60.7044 115.964 73.6139 102.36 76.6678C105.368 70.9996 108.884 57.3036 98.89 47.8644C98.1959 51.6817 98.543 52.7228 98.1959 55.499C96.9235 50.5249 91.9494 40.0215 82.2326 37.8006C84.3148 40.5768 89.8672 45.7822 84.3148 60.3574C82.6953 64.5218 80.9139 73.7527 86.744 77.3618C77.7212 75.6267 73.5569 74.5856 68.3514 65.9099C66.9633 62.9023 65.1588 55.0826 69.0455 47.8644C69.0455 51.6817 75.292 57.5812 76.6801 47.8644C75.6391 32.9422 64.3259 24.6135 51 20.4491Z" fill="url(#paint2_linear_2027_73)"/>
<defs>
<linearGradient id="paint0_linear_2027_73" x1="50" y1="13.5" x2="90" y2="180" gradientUnits="userSpaceOnUse">
<stop stop-color="#FF7700"/>
<stop offset="1" stop-color="#B80F00"/>
</linearGradient>
<linearGradient id="paint1_linear_2027_73" x1="97.4817" y1="78.995" x2="97.4817" y2="160.043" gradientUnits="userSpaceOnUse">
<stop stop-color="#4C4C4C"/>
<stop offset="1"/>
</linearGradient>
<linearGradient id="paint2_linear_2027_73" x1="79.1093" y1="24.2664" x2="93.3375" y2="77.0148" gradientUnits="userSpaceOnUse">
<stop stop-color="#FF4E4E"/>
<stop offset="1" stop-color="#C40000"/>
</linearGradient>
</defs>
</svg>
